<?xml version="1.0"?>
<svg xmlns="http://www.w3.org/2000/svg" xmlns:xlink="http://www.w3.org/1999/xlink" xmlns:svgjs="http://svgjs.com/svgjs" version="1.1" width="512" height="512" x="0" y="0" viewBox="0 0 587.756 587.757" style="enable-background:new 0 0 512 512" xml:space="preserve" class=""><g>
<g xmlns="http://www.w3.org/2000/svg">
	<g>
		<path d="M207.954,281.296c9.519-8.192,8.805-25.585-4.647-28.796c-1.759-0.42-3.546-0.665-5.316-0.751    c-0.126-2.26-1.62-4.251-4.537-3.896c-12.999,1.587-21.726,12.469-15.602,25.341C183.167,284.368,197.729,290.092,207.954,281.296    z M198.782,261.549c3.909,0.139,6.006,1.453,6.01,5.537c0,3.068-1.318,5.79-3.835,7.511c-5.79,3.958-11.897-0.196-14.256-5.426    c-0.012-0.176,0-0.343-0.028-0.526C185.534,261.333,193.874,261.377,198.782,261.549z" fill="#46974b" data-original="#000000" style="" class=""/>
		<path d="M250.259,304.98c9.519-8.192,8.805-25.59-4.647-28.797c-1.758-0.42-3.545-0.665-5.316-0.75    c-0.126-2.26-1.62-4.251-4.537-3.896c-12.999,1.587-21.726,12.469-15.602,25.341C225.477,308.057,240.039,313.777,250.259,304.98z     M241.087,285.233c3.909,0.139,6.006,1.452,6.01,5.536c0,3.068-1.318,5.79-3.835,7.512c-5.789,3.957-11.897-0.2-14.255-5.427    c-0.012-0.175,0-0.343-0.028-0.526C227.844,285.021,236.183,285.062,241.087,285.233z" fill="#46974b" data-original="#000000" style="" class=""/>
		<path d="M125.742,264.662c5.32,11.179,19.882,16.903,30.102,8.103c9.519-8.192,8.805-25.59-4.647-28.796    c-1.758-0.42-3.545-0.665-5.316-0.751c-0.126-2.26-1.62-4.251-4.537-3.896C128.345,240.908,119.618,251.793,125.742,264.662z     M146.672,253.021c3.909,0.139,6.006,1.453,6.01,5.537c0,3.068-1.317,5.79-3.835,7.511c-5.79,3.958-11.897-0.2-14.255-5.426    c-0.012-0.175,0-0.343-0.029-0.526C133.424,252.805,141.764,252.85,146.672,253.021z" fill="#46974b" data-original="#000000" style="" class=""/>
		<path d="M223.111,157.183c9.519-8.193,8.805-25.586-4.647-28.797c-1.759-0.42-3.546-0.665-5.316-0.75    c-0.126-2.26-1.62-4.251-4.537-3.896c-12.999,1.587-21.726,12.468-15.602,25.341C198.329,160.255,212.891,165.979,223.111,157.183    z M213.939,137.435c3.909,0.139,6.006,1.453,6.01,5.537c0,3.068-1.318,5.79-3.835,7.511c-5.79,3.958-11.897-0.196-14.256-5.426    c-0.012-0.175,0-0.343-0.028-0.526C200.695,137.219,209.031,137.264,213.939,137.435z" fill="#46974b" data-original="#000000" style="" class=""/>
		<path d="M287.126,151.499c9.519-8.193,8.805-25.59-4.647-28.797c-1.759-0.42-3.545-0.665-5.316-0.75    c-0.126-2.26-1.62-4.251-4.537-3.896c-12.999,1.587-21.726,12.469-15.602,25.341C262.344,154.571,276.906,160.295,287.126,151.499    z M277.954,131.752c3.909,0.139,6.006,1.452,6.01,5.536c0,3.068-1.318,5.79-3.835,7.512c-5.79,3.958-11.897-0.2-14.256-5.427    c-0.012-0.175,0-0.343-0.028-0.526C264.71,131.536,273.046,131.581,277.954,131.752z" fill="#46974b" data-original="#000000" style="" class=""/>
		<path d="M355.462,104.848c-12.999,1.587-21.726,12.469-15.602,25.341c5.32,11.179,19.882,16.904,30.102,8.103    c9.519-8.192,8.805-25.585-4.646-28.797c-1.759-0.42-3.546-0.665-5.316-0.75C359.873,106.484,358.379,104.493,355.462,104.848z     M366.8,124.085c0,3.068-1.317,5.79-3.835,7.511c-5.789,3.958-11.897-0.196-14.255-5.426c-0.013-0.175,0-0.343-0.029-0.526    c-1.134-7.315,7.205-7.271,12.109-7.099C364.7,118.684,366.796,119.997,366.8,124.085z" fill="#46974b" data-original="#000000" style="" class=""/>
		<path d="M308.102,69.271c-0.127-2.26-1.62-4.251-4.537-3.896c-13,1.587-21.727,12.469-15.603,25.341    c5.32,11.179,19.883,16.903,30.103,8.103c9.519-8.192,8.805-25.589-4.643-28.796C311.66,69.605,309.873,69.356,308.102,69.271z     M311.064,92.127c-5.79,3.958-11.897-0.2-14.256-5.427c-0.013-0.175,0-0.342-0.028-0.526c-1.135-7.316,7.201-7.271,12.109-7.1    c3.908,0.139,6.006,1.453,6.01,5.537C314.903,87.684,313.585,90.405,311.064,92.127z" fill="#46974b" data-original="#000000" style="" class=""/>
		<path d="M234.119,80.271c-12.999,1.587-21.726,12.468-15.602,25.341c5.32,11.179,19.882,16.903,30.103,8.103    c9.519-8.192,8.805-25.589-4.643-28.796c-1.759-0.42-3.546-0.665-5.316-0.75C238.525,81.911,237.032,79.916,234.119,80.271z     M245.453,99.508c0,3.068-1.318,5.789-3.835,7.511c-5.79,3.958-11.897-0.195-14.255-5.426c-0.012-0.175,0-0.343-0.029-0.526    c-1.134-7.315,7.201-7.271,12.109-7.099C243.356,94.11,245.453,95.423,245.453,99.508z" fill="#46974b" data-original="#000000" style="" class=""/>
		<path d="M131.943,122.698c-1.759-0.42-3.546-0.665-5.316-0.75c-0.126-2.26-1.62-4.251-4.537-3.896    c-12.999,1.587-21.726,12.468-15.602,25.341c5.32,11.179,19.882,16.903,30.102,8.103    C146.109,143.302,145.395,125.909,131.943,122.698z M129.589,144.8c-5.79,3.958-11.897-0.2-14.255-5.427    c-0.012-0.175,0-0.343-0.028-0.526c-1.134-7.315,7.205-7.271,12.109-7.099c3.909,0.139,6.006,1.453,6.01,5.537    C133.428,140.356,132.11,143.078,129.589,144.8z" fill="#46974b" data-original="#000000" style="" class=""/>
		<path d="M74.75,100.939c5.32,11.179,19.882,16.904,30.102,8.103c9.519-8.193,8.805-25.59-4.647-28.796    c-1.759-0.42-3.546-0.665-5.316-0.751c-0.126-2.26-1.62-4.251-4.537-3.896C77.353,77.186,68.625,88.071,74.75,100.939z     M95.68,89.299c3.909,0.139,6.006,1.453,6.01,5.537c0,3.068-1.318,5.79-3.835,7.511c-5.79,3.958-11.897-0.196-14.256-5.426    c-0.012-0.176,0-0.343-0.028-0.526C82.433,89.083,90.772,89.128,95.68,89.299z" fill="#46974b" data-original="#000000" style="" class=""/>
		<path d="M60.796,167.966c5.32,11.179,19.882,16.903,30.102,8.103c9.519-8.193,8.805-25.586-4.647-28.797    c-1.759-0.42-3.546-0.665-5.316-0.75c-0.126-2.26-1.62-4.251-4.537-3.896C63.403,144.212,54.672,155.098,60.796,167.966z     M81.727,156.326c3.909,0.139,6.006,1.453,6.01,5.537c0,3.068-1.318,5.79-3.835,7.511c-5.79,3.958-11.897-0.196-14.256-5.426    c-0.012-0.176,0-0.343-0.028-0.526C68.483,156.109,76.818,156.154,81.727,156.326z" fill="#46974b" data-original="#000000" style="" class=""/>
		<path d="M41.542,219.28c5.32,11.179,19.882,16.903,30.103,8.103c9.519-8.192,8.805-25.59-4.643-28.796    c-1.759-0.42-3.545-0.665-5.316-0.751c-0.126-2.26-1.62-4.251-4.537-3.896C44.146,195.526,35.418,206.408,41.542,219.28z     M62.473,207.64c3.909,0.139,6.006,1.453,6.01,5.537c0,3.068-1.318,5.79-3.835,7.511c-5.789,3.958-11.897-0.2-14.255-5.426    c-0.012-0.175,0-0.343-0.028-0.526C49.225,207.423,57.565,207.468,62.473,207.64z" fill="#46974b" data-original="#000000" style="" class=""/>
		<path d="M42.481,272.769c9.519-8.192,8.805-25.589-4.647-28.796c-1.758-0.42-3.545-0.665-5.316-0.75    c-0.126-2.261-1.62-4.251-4.537-3.896c-12.999,1.587-21.726,12.468-15.602,25.341C17.699,275.841,32.256,281.565,42.481,272.769z     M33.309,253.021c3.909,0.139,6.006,1.453,6.01,5.537c0,3.068-1.318,5.79-3.835,7.511c-5.79,3.958-11.897-0.2-14.255-5.426    c-0.012-0.175,0-0.343-0.029-0.526C20.062,252.805,28.401,252.85,33.309,253.021z" fill="#46974b" data-original="#000000" style="" class=""/>
		<path d="M351.929,364.291c-1.759-0.42-3.546-0.665-5.316-0.75c-0.126-2.261-1.62-4.252-4.537-3.896    c-12.999,1.587-21.726,12.468-15.602,25.341c5.32,11.179,19.882,16.903,30.103,8.103    C366.095,384.899,365.376,367.502,351.929,364.291z M349.575,386.396c-5.789,3.958-11.897-0.199-14.255-5.426    c-0.013-0.176,0-0.343-0.029-0.526c-1.134-7.315,7.206-7.271,12.109-7.1c3.909,0.139,6.006,1.453,6.011,5.537    C353.415,381.954,352.092,384.675,349.575,386.396z" fill="#46974b" data-original="#000000" style="" class=""/>
		<path d="M528.333,249.606c-1.759-0.42-3.546-0.665-5.316-0.75c-0.127-2.26-1.62-4.251-4.537-3.896    c-12.999,1.587-21.727,12.469-15.602,25.341c5.32,11.179,19.881,16.904,30.102,8.103    C542.498,270.215,541.784,252.817,528.333,249.606z M525.978,271.712c-5.79,3.958-11.897-0.196-14.256-5.426    c-0.012-0.175,0-0.343-0.028-0.526c-1.135-7.315,7.205-7.271,12.109-7.099c3.908,0.139,6.006,1.453,6.01,5.537    C529.817,267.269,528.5,269.99,525.978,271.712z" fill="#46974b" data-original="#000000" style="" class=""/>
		<path d="M509.315,113.225c-1.758-0.42-3.545-0.665-5.316-0.751c-0.126-2.26-1.619-4.251-4.537-3.896    c-12.998,1.587-21.726,12.469-15.602,25.341c5.32,11.179,19.882,16.903,30.103,8.103    C523.481,133.829,522.767,116.436,509.315,113.225z M506.961,135.326c-5.79,3.958-11.897-0.2-14.256-5.426    c-0.013-0.175,0-0.343-0.028-0.526c-1.135-7.315,7.201-7.271,12.109-7.099c3.908,0.139,6.006,1.453,6.01,5.537    C510.8,130.883,509.483,133.604,506.961,135.326z" fill="#46974b" data-original="#000000" style="" class=""/>
		<path d="M456.292,127.631c-0.127-2.26-1.62-4.251-4.537-3.896c-12.999,1.587-21.726,12.469-15.602,25.341    c5.32,11.18,19.882,16.899,30.102,8.103c9.52-8.192,8.805-25.585-4.646-28.796C459.853,127.966,458.066,127.717,456.292,127.631z     M459.257,150.487c-5.789,3.958-11.897-0.196-14.255-5.427c-0.013-0.175,0-0.343-0.029-0.526    c-1.134-7.315,7.206-7.271,12.109-7.099c3.909,0.139,6.006,1.453,6.011,5.537C463.093,146.044,461.775,148.766,459.257,150.487z" fill="#46974b" data-original="#000000" style="" class=""/>
		<path d="M401.432,120.711c5.32,11.179,19.882,16.903,30.102,8.103c9.519-8.193,8.805-25.586-4.646-28.797    c-1.759-0.42-3.546-0.665-5.316-0.751c-0.127-2.26-1.62-4.251-4.537-3.896C404.039,96.958,395.308,107.843,401.432,120.711z     M422.362,109.071c3.909,0.139,6.006,1.452,6.01,5.536c0,3.068-1.317,5.79-3.835,7.512c-5.789,3.958-11.897-0.196-14.255-5.427    c-0.013-0.175,0-0.343-0.029-0.526C409.119,108.855,417.454,108.9,422.362,109.071z" fill="#46974b" data-original="#000000" style="" class=""/>
		<path d="M393.994,136.941c-12.999,1.587-21.726,12.469-15.602,25.341c5.32,11.179,19.882,16.904,30.103,8.103    c9.519-8.192,8.805-25.59-4.647-28.796c-1.759-0.42-3.546-0.665-5.316-0.751C398.4,138.578,396.907,136.586,393.994,136.941z     M405.329,156.179c0,3.068-1.318,5.79-3.836,7.511c-5.789,3.958-11.897-0.2-14.255-5.426c-0.013-0.175,0-0.343-0.029-0.526    c-1.134-7.315,7.201-7.271,12.109-7.099C403.227,150.777,405.329,152.095,405.329,156.179z" fill="#46974b" data-original="#000000" style="" class=""/>
		<path d="M469.535,81.131c-1.758-0.42-3.545-0.665-5.315-0.751c-0.127-2.26-1.62-4.251-4.537-3.896    c-12.999,1.587-21.727,12.468-15.603,25.341c5.32,11.179,19.882,16.899,30.103,8.103    C483.701,101.735,482.987,84.338,469.535,81.131z M467.181,103.232c-5.79,3.958-11.897-0.196-14.256-5.426    c-0.012-0.175,0-0.343-0.028-0.526c-1.135-7.315,7.205-7.271,12.109-7.099c3.908,0.139,6.006,1.453,6.01,5.537    C471.02,98.79,469.703,101.511,467.181,103.232z" fill="#46974b" data-original="#000000" style="" class=""/>
		<path d="M364.981,86.721c5.32,11.179,19.882,16.903,30.103,8.103c9.519-8.193,8.805-25.585-4.644-28.796    c-1.758-0.42-3.545-0.665-5.316-0.751c-0.126-2.26-1.619-4.251-4.536-3.896C367.584,62.967,358.857,73.853,364.981,86.721z     M385.912,75.081c3.908,0.139,6.006,1.453,6.01,5.537c0,3.068-1.318,5.79-3.835,7.511c-5.79,3.958-11.897-0.196-14.256-5.426    c-0.013-0.176,0-0.343-0.028-0.526C372.664,74.864,381.003,74.909,385.912,75.081z" fill="#46974b" data-original="#000000" style="" class=""/>
		<path d="M428.948,249.606c-1.759-0.42-3.546-0.665-5.316-0.75c-0.127-2.26-1.62-4.251-4.537-3.896    c-12.999,1.587-21.727,12.469-15.602,25.341c5.32,11.179,19.881,16.904,30.102,8.103    C443.113,270.215,442.399,252.817,428.948,249.606z M426.593,271.712c-5.79,3.958-11.897-0.196-14.256-5.426    c-0.012-0.175,0-0.343-0.028-0.526c-1.135-7.315,7.201-7.271,12.109-7.099c3.908,0.139,6.006,1.453,6.01,5.537    C430.432,267.269,429.115,269.99,426.593,271.712z" fill="#46974b" data-original="#000000" style="" class=""/>
		<path d="M456.292,363.541c-0.127-2.261-1.62-4.252-4.537-3.896c-12.999,1.587-21.726,12.468-15.602,25.341    c5.32,11.179,19.882,16.903,30.102,8.103c9.52-8.192,8.805-25.59-4.646-28.797C459.853,363.875,458.066,363.626,456.292,363.541z     M459.257,386.396c-5.789,3.958-11.897-0.199-14.255-5.426c-0.013-0.176,0-0.343-0.029-0.526c-1.134-7.315,7.206-7.271,12.109-7.1    c3.909,0.139,6.006,1.453,6.011,5.537C463.093,381.954,461.775,384.675,459.257,386.396z" fill="#46974b" data-original="#000000" style="" class=""/>
		<path d="M517.202,295.074c-1.759-0.42-3.545-0.665-5.316-0.751c-0.126-2.26-1.619-4.251-4.537-3.896    c-12.998,1.587-21.726,12.468-15.602,25.34c5.32,11.18,19.882,16.903,30.103,8.104    C531.368,315.678,530.654,298.281,517.202,295.074z M514.848,317.176c-5.79,3.957-11.897-0.2-14.256-5.427    c-0.013-0.176,0-0.343-0.028-0.526c-1.135-7.315,7.205-7.271,12.109-7.099c3.908,0.139,6.006,1.452,6.01,5.536    C518.687,312.732,517.369,315.454,514.848,317.176z" fill="#46974b" data-original="#000000" style="" class=""/>
		<path d="M521.849,393.092c9.519-8.192,8.805-25.59-4.647-28.796c-1.759-0.421-3.546-0.665-5.316-0.751    c-0.126-2.261-1.619-4.252-4.537-3.896c-12.998,1.587-21.726,12.469-15.602,25.341    C497.067,396.164,511.625,401.889,521.849,393.092z M500.596,380.971c-0.013-0.176,0-0.343-0.028-0.526    c-1.135-7.315,7.205-7.271,12.109-7.1c3.908,0.139,6.006,1.453,6.01,5.537c0,3.067-1.318,5.789-3.835,7.511    C509.058,390.354,502.951,386.197,500.596,380.971z" fill="#46974b" data-original="#000000" style="" class=""/>
		<path d="M555.713,332.912c-1.759-0.42-3.546-0.665-5.316-0.751c-0.127-2.26-1.62-4.251-4.537-3.896    c-12.999,1.588-21.727,12.469-15.603,25.341c5.321,11.18,19.882,16.904,30.103,8.104    C569.878,353.516,569.161,336.123,555.713,332.912z M553.359,355.014c-5.79,3.957-11.897-0.2-14.256-5.427    c-0.012-0.176,0-0.343-0.028-0.526c-1.135-7.315,7.201-7.271,12.109-7.099c3.908,0.139,6.006,1.452,6.01,5.536    C557.198,350.57,555.876,353.292,553.359,355.014z" fill="#46974b" data-original="#000000" style="" class=""/>
		<path d="M542.771,206.191c-1.759-0.42-3.546-0.665-5.316-0.751c-0.126-2.26-1.619-4.251-4.536-3.896    c-12.999,1.587-21.727,12.468-15.603,25.341c5.32,11.179,19.882,16.903,30.103,8.103    C556.937,226.795,556.219,209.402,542.771,206.191z M540.417,228.293c-5.789,3.958-11.896-0.2-14.255-5.427    c-0.013-0.175,0-0.343-0.028-0.526c-1.135-7.315,7.205-7.271,12.109-7.099c3.908,0.139,6.006,1.453,6.01,5.537    C544.256,223.85,542.934,226.571,540.417,228.293z" fill="#46974b" data-original="#000000" style="" class=""/>
		<path d="M574.966,271.386c-1.759-0.42-3.546-0.665-5.316-0.751c-0.126-2.26-1.619-4.251-4.537-3.896    c-12.998,1.587-21.726,12.468-15.602,25.341c5.32,11.179,19.882,16.903,30.103,8.103    C589.132,291.99,588.418,274.597,574.966,271.386z M572.612,293.491c-5.789,3.958-11.896-0.195-14.255-5.426    c-0.013-0.176,0-0.343-0.028-0.526c-1.135-7.315,7.201-7.271,12.109-7.099c3.908,0.139,6.006,1.452,6.01,5.536    C576.452,289.044,575.133,291.765,572.612,293.491z" fill="#46974b" data-original="#000000" style="" class=""/>
		<path d="M542.771,156.925c-1.759-0.42-3.546-0.665-5.316-0.75c-0.126-2.26-1.619-4.251-4.536-3.896    c-12.999,1.587-21.727,12.468-15.603,25.341c5.32,11.179,19.882,16.903,30.103,8.103    C556.937,177.529,556.219,160.132,542.771,156.925z M540.417,179.027c-5.789,3.958-11.896-0.2-14.255-5.426    c-0.013-0.176,0-0.343-0.028-0.526c-1.135-7.315,7.205-7.271,12.109-7.1c3.908,0.139,6.006,1.453,6.01,5.537    C544.256,174.583,542.934,177.305,540.417,179.027z" fill="#46974b" data-original="#000000" style="" class=""/>
		<path d="M490.527,184.983c-10.723,21.938-18.87,44.66-24.325,68.299c-1.754-4.288-3.142-8.731-3.46-13.611    c-1.236-19.054,6.414-41.539,9.771-60.319c2.265-12.668-17.099-18.083-19.376-5.341c-3.541,19.817-7.588,39.605-10.171,59.568    c-1.126,8.71,0.403,17.262,3.619,25.324c3.391,8.507,9.485,15.251,9.053,24.9c-0.016,0.383,0.041,0.722,0.058,1.081    c-12.068,5.553-31.894,5.345-40.584,6.39c-17.703,2.129-35.341,4.537-52.767,8.351c-8.743,1.914-21.33,5.003-33.472,9.784    c15.026-17.724,35.39-31.804,53.427-46.186c29.434-23.476,50.723-52.742,56.365-90.58c1.89-12.672-17.47-18.123-19.376-5.341    c-4.785,32.069-21.416,54.358-43.011,74.109c0.604-24.28-11.041-48.324-7.156-73.828c1.93-12.672-17.43-18.119-19.376-5.341    c-2.248,14.745-0.792,28.283,2.183,42.824c3.688,18.013,9.209,36.63-0.351,53.795c-0.779,1.396-1.191,2.774-1.314,4.096    c-18.278,14.146-36.279,29.911-48.331,49.302c-3.917-10.71-8.348-21.187-13.677-31.236c13.917-23.721,27.238-47.614,35.427-73.999    c8.793-28.328,6.65-58.373,2.938-87.324c-1.623-12.668-21.742-12.828-20.094,0c3.554,27.703,5.186,54.737-2.22,81.983    c-5.691,20.935-16.455,40.306-27.442,59.062c0.604-2.179,0.539-4.61-0.641-7.136c-11.942-25.524,6.141-55.92,7.846-82.249    c0.84-12.946-19.262-12.864-20.094,0c-1.485,22.885-10.906,43.64-10.987,65.149c-17.299-16.344-34.762-33.088-33.371-57.96    c0.727-12.954-19.375-12.884-20.094,0c-0.885,15.851,4.243,29.335,12.252,41.396c-6.813-1.159-13.537-2.611-19.837-5.386    c-19.078-8.405-14.549-36.373-14.219-52.975c0.355-17.83,2.081-36.104-3.484-53.326c-5.243-16.214-23.843-20.412-29.649-34.872    c-4.766-11.869-24.211-6.691-19.376,5.34c6.744,16.79,25.712,22.697,31.208,39.699c4.868,15.067,2.93,33.138,1.726,50.27    c-2.766-2.146-5.732-4.056-8.915-5.646c-4.9-2.452-10.849-1.347-13.745,3.603c-2.632,4.492-1.29,11.297,3.603,13.746    c6.279,3.142,11.342,7.356,15.014,12.95c1.122,1.709,2.64,3.043,4.357,3.896c2.216,13.178,8.474,24.121,19.678,32.558    c14.712,11.078,36.977,9.355,53.938,14.472c0.224,0.069,0.428,0.073,0.645,0.126c2.444,2.411,4.92,4.786,7.393,7.127    c22.411,21.208,35.039,46.125,44.892,73.607c-7.018-2.473-14.558-3.908-21.224-4.627c-36.896-3.97-75.504,1.767-100.597-31.73    c-7.67-10.237-25.128-0.241-17.352,10.143c6.479,8.649,13.839,15.822,22.044,21.669c-0.583,0.09-1.171,0.163-1.754,0.257    c-7.401,1.191-14.684,3.007-21.975,4.729c-11.342,2.681-13.166-12.399-15.431-19.078c-4.112-12.129-10.175-23.488-17.634-33.855    c0.057-0.669,0.062-1.371-0.024-2.126c-2.917-26.308,10.535-51.481-8.311-74.415c-8.233-10.021-22.366,4.284-14.21,14.211    c8.617,10.485,5.724,26.145,3.607,40.788c-2.102-1.979-4.239-3.917-6.438-5.773c-9.833-8.307-24.121,5.834-14.21,14.211    c13.447,11.363,23.978,24.296,32.35,39.804c6.153,11.399,7.369,27.94,16.471,37.634c8.352,8.895,17.589,9.85,29.172,7.984    c18.511-2.978,36.022-7.176,54.933-7.947c1.003-0.041,1.905-0.236,2.754-0.494c5.924,0.519,16.585,0.886,28.328,1.604    c-11.808,11.474-18.629,26.186-37.72,27.047c-12.905,0.583-12.962,20.682,0,20.094c18.588-0.841,31.697-8.947,43.236-23.215    c9.596-11.865,17.866-18.181,33.077-8.879c12.187,7.45,17.617,22.656,17.715,36.157c0.016,2.044,0.567,3.729,1.424,5.129v183.579    c0,12.958,20.095,12.958,20.095,0V355.491c3.46-2.804,10.045-4.46,12.84-5.725c13.365-6.051,21.293-7.062,34.112,0.571    c15.186,9.041,32.452,12.962,49.936,13.782c12.958,0.607,12.9-19.49,0-20.094c-16.234-0.764-30.196-5.325-44.121-13.615    c-4.595-2.733-9.968-5.594-15.524-6.944c4.904-1.403,9.123-2.456,11.697-3.146c8.539-2.289,17.233-3.966,25.981-5.354    c1.444,1.008,3.219,1.689,5.394,1.779c17.173,0.73,30.49,15.051,43.896,24.28c16.712,11.501,35.231,12.444,54.864,10.991    c12.84-0.95,12.934-21.053,0-20.094c-22.93,1.697-37.487-2.489-55.61-16.12c-2.783-2.093-5.541-4.084-8.315-5.981    c25.022-2.778,59.776-7.352,57.206-39.205c-0.159-1.95-0.792-3.57-1.689-4.929c5.019-24.488,12.844-47.993,23.876-70.56    C513.546,183.535,496.218,173.343,490.527,184.983z" fill="#46974b" data-original="#000000" style="" class=""/>
		<path d="M547.827,87.77c-1.759-0.42-3.546-0.665-5.316-0.751c-0.127-2.26-1.62-4.251-4.537-3.896    c-12.999,1.587-21.727,12.469-15.602,25.341c5.32,11.18,19.882,16.904,30.102,8.103C561.992,108.374,561.278,90.98,547.827,87.77z     M545.472,109.871c-5.79,3.958-11.897-0.196-14.256-5.426c-0.012-0.175,0-0.343-0.028-0.526    c-1.134-7.315,7.201-7.271,12.109-7.099c3.908,0.139,6.006,1.453,6.01,5.537C549.311,105.428,547.994,108.149,545.472,109.871z" fill="#46974b" data-original="#000000" style="" class=""/>
		<path d="M41.542,302.442c5.32,11.18,19.882,16.903,30.103,8.104c9.519-8.193,8.805-25.586-4.643-28.797    c-1.759-0.42-3.545-0.665-5.316-0.751c-0.126-2.26-1.62-4.251-4.537-3.896C44.146,278.689,35.418,289.574,41.542,302.442z     M62.473,290.802c3.909,0.139,6.006,1.453,6.01,5.537c0,3.068-1.318,5.79-3.835,7.512c-5.789,3.957-11.897-0.196-14.255-5.427    c-0.012-0.176,0-0.343-0.028-0.526C49.225,290.586,57.565,290.631,62.473,290.802z" fill="#46974b" data-original="#000000" style="" class=""/>
		<path d="M95.599,332.912c-1.758-0.42-3.545-0.665-5.316-0.751c-0.126-2.26-1.62-4.251-4.537-3.896    c-12.999,1.588-21.726,12.469-15.602,25.341c5.32,11.18,19.882,16.904,30.102,8.104    C109.764,353.516,109.05,336.123,95.599,332.912z M93.245,355.014c-5.79,3.957-11.897-0.2-14.256-5.427    c-0.012-0.176,0-0.343-0.028-0.526c-1.134-7.315,7.205-7.271,12.109-7.099c3.909,0.139,6.006,1.452,6.01,5.536    C97.083,350.57,95.766,353.292,93.245,355.014z" fill="#46974b" data-original="#000000" style="" class=""/>
		<path d="M138.716,364.291c-1.758-0.42-3.545-0.665-5.316-0.75c-0.126-2.261-1.62-4.252-4.537-3.896    c-12.999,1.587-21.726,12.468-15.602,25.341c5.32,11.179,19.882,16.903,30.103,8.103    C152.882,384.899,152.168,367.502,138.716,364.291z M136.362,386.396c-5.79,3.958-11.897-0.199-14.255-5.426    c-0.012-0.176,0-0.343-0.029-0.526c-1.134-7.315,7.206-7.271,12.109-7.1c3.909,0.139,6.006,1.453,6.01,5.537    C140.201,381.954,138.879,384.675,136.362,386.396z" fill="#46974b" data-original="#000000" style="" class=""/>
		<path d="M57.091,103.808c-1.758-0.42-3.545-0.665-5.316-0.75c-0.126-2.26-1.62-4.251-4.537-3.896    c-12.999,1.587-21.726,12.469-15.602,25.341c5.32,11.179,19.882,16.904,30.103,8.103    C71.253,124.416,70.539,107.019,57.091,103.808z M54.737,125.913c-5.79,3.958-11.897-0.2-14.255-5.426    c-0.012-0.175,0-0.343-0.029-0.526c-1.134-7.315,7.201-7.271,12.109-7.099c3.909,0.139,6.006,1.453,6.01,5.537    C58.573,121.466,57.255,124.188,54.737,125.913z" fill="#46974b" data-original="#000000" style="" class=""/>
		<path d="M33.835,186.779c9.519-8.193,8.805-25.586-4.643-28.797c-1.762-0.42-3.549-0.665-5.32-0.75    c-0.126-2.26-1.62-4.251-4.537-3.896c-12.999,1.587-21.726,12.469-15.602,25.341C9.054,189.855,23.611,195.575,33.835,186.779z     M12.579,174.657c-0.012-0.176,0-0.343-0.028-0.526c-1.134-7.315,7.201-7.271,12.109-7.099c3.909,0.139,6.006,1.452,6.01,5.537    c0,3.068-1.318,5.789-3.835,7.511C21.045,184.045,14.937,179.888,12.579,174.657z" fill="#46974b" data-original="#000000" style="" class=""/>
		<path d="M189.357,56.712c-12.999,1.587-21.726,12.468-15.602,25.341c5.32,11.179,19.882,16.903,30.103,8.103    c9.519-8.193,8.805-25.59-4.643-28.797c-1.759-0.42-3.545-0.665-5.316-0.75C193.763,58.349,192.27,56.354,189.357,56.712z     M200.695,75.95c0,3.068-1.318,5.79-3.835,7.511c-5.789,3.958-11.897-0.2-14.255-5.426c-0.012-0.176,0-0.343-0.028-0.526    c-1.134-7.315,7.201-7.271,12.109-7.099C198.594,70.548,200.691,71.861,200.695,75.95z" fill="#46974b" data-original="#000000" style="" class=""/>
		<path d="M114.856,23.579c-1.758-0.42-3.545-0.665-5.316-0.75c-0.126-2.26-1.62-4.251-4.537-3.896    C92.004,20.519,83.277,31.4,89.401,44.272c5.32,11.179,19.882,16.903,30.103,8.103C129.022,44.183,128.304,26.79,114.856,23.579z     M112.502,45.68c-5.79,3.958-11.897-0.2-14.255-5.426c-0.012-0.176,0-0.343-0.029-0.526c-1.134-7.315,7.201-7.271,12.109-7.1    c3.909,0.139,6.006,1.453,6.01,5.537C116.337,41.237,115.02,43.958,112.502,45.68z" fill="#46974b" data-original="#000000" style="" class=""/>
		<path d="M263.344,40.857c-0.126-2.26-1.62-4.251-4.537-3.896c-12.999,1.587-21.726,12.469-15.602,25.341    c5.321,11.18,19.882,16.904,30.103,8.103c9.519-8.192,8.805-25.59-4.647-28.796C266.901,41.188,265.114,40.943,263.344,40.857z     M266.306,63.709c-5.79,3.958-11.897-0.2-14.255-5.426c-0.012-0.175,0-0.343-0.029-0.526c-1.134-7.315,7.206-7.271,12.11-7.099    c3.909,0.139,6.005,1.453,6.01,5.537C270.145,59.267,268.827,61.988,266.306,63.709z" fill="#46974b" data-original="#000000" style="" class=""/>
		<path d="M224.714,16.027c-1.759-0.42-3.545-0.665-5.316-0.751c-0.126-2.26-1.62-4.251-4.537-3.896    c-12.999,1.587-21.726,12.469-15.602,25.341c5.32,11.179,19.882,16.903,30.102,8.103C238.88,36.635,238.166,19.238,224.714,16.027    z M222.36,38.132c-5.789,3.958-11.897-0.195-14.255-5.426c-0.012-0.175,0-0.343-0.028-0.526    c-1.134-7.315,7.201-7.271,12.109-7.099c3.909,0.139,6.006,1.453,6.01,5.537C226.199,33.685,224.881,36.406,222.36,38.132z" fill="#46974b" data-original="#000000" style="" class=""/>
		<path d="M175.097,39.005c9.519-8.193,8.805-25.59-4.647-28.797c-1.758-0.42-3.545-0.665-5.316-0.75    c-0.126-2.26-1.62-4.251-4.537-3.896c-12.999,1.587-21.726,12.468-15.602,25.341C150.315,42.078,164.877,47.802,175.097,39.005z     M165.926,19.258c3.908,0.139,6.005,1.453,6.01,5.537c0,3.068-1.318,5.79-3.835,7.511c-5.79,3.958-11.897-0.196-14.255-5.426    c-0.012-0.175,0-0.343-0.029-0.526C152.682,19.042,161.017,19.087,165.926,19.258z" fill="#46974b" data-original="#000000" style="" class=""/>
		<path d="M346.062,29.095c-1.759-0.42-3.546-0.665-5.316-0.75c-0.126-2.26-1.619-4.251-4.537-3.896    c-12.998,1.587-21.726,12.468-15.602,25.341c5.32,11.179,19.882,16.904,30.103,8.103    C360.228,49.699,359.514,32.306,346.062,29.095z M343.708,51.196c-5.789,3.958-11.896-0.2-14.255-5.426    c-0.013-0.176,0-0.343-0.028-0.526c-1.135-7.315,7.201-7.271,12.109-7.099c3.908,0.139,6.005,1.452,6.01,5.536    C347.547,46.753,346.229,49.475,343.708,51.196z" fill="#46974b" data-original="#000000" style="" class=""/>
		<path d="M405.569,63.159c5.32,11.179,19.882,16.904,30.103,8.103c9.519-8.192,8.805-25.59-4.644-28.797    c-1.758-0.42-3.545-0.665-5.316-0.75c-0.126-2.26-1.619-4.251-4.536-3.896C408.172,39.405,399.445,50.291,405.569,63.159z     M426.5,51.519c3.908,0.139,6.006,1.453,6.01,5.537c0,3.068-1.318,5.79-3.835,7.511c-5.79,3.958-11.897-0.2-14.256-5.426    c-0.013-0.175,0-0.343-0.028-0.526C413.251,51.302,421.591,51.347,426.5,51.519z" fill="#46974b" data-original="#000000" style="" class=""/>
		<path d="M509.079,52.481c-1.759-0.42-3.546-0.665-5.316-0.75c-0.126-2.26-1.62-4.251-4.537-3.896    c-12.999,1.587-21.726,12.468-15.602,25.341c5.32,11.179,19.882,16.903,30.102,8.103    C523.245,73.085,522.526,55.692,509.079,52.481z M506.724,74.583c-5.789,3.958-11.897-0.196-14.255-5.427    c-0.013-0.175,0-0.343-0.029-0.526c-1.134-7.315,7.205-7.271,12.109-7.099c3.909,0.139,6.006,1.453,6.01,5.537    C510.559,70.14,509.242,72.861,506.724,74.583z" fill="#46974b" data-original="#000000" style="" class=""/>
		<path d="M364.981,30.898c5.32,11.179,19.882,16.903,30.103,8.103c9.519-8.192,8.805-25.59-4.644-28.796    c-1.758-0.42-3.545-0.665-5.316-0.751c-0.126-2.26-1.619-4.251-4.536-3.896C367.584,7.145,358.857,18.03,364.981,30.898z     M385.912,19.258c3.908,0.139,6.006,1.453,6.01,5.537c0,3.068-1.318,5.79-3.835,7.511c-5.79,3.958-11.897-0.196-14.256-5.426    c-0.013-0.175,0-0.343-0.028-0.526C372.664,19.042,381.003,19.087,385.912,19.258z" fill="#46974b" data-original="#000000" style="" class=""/>
		<path d="M296.776,4.688c-1.759-0.42-3.546-0.665-5.317-0.751c-0.126-2.26-1.62-4.251-4.537-3.896    c-12.999,1.587-21.726,12.469-15.602,25.341c5.32,11.18,19.882,16.904,30.102,8.103C310.937,25.292,310.223,7.899,296.776,4.688z     M294.421,26.79c-5.79,3.958-11.897-0.196-14.255-5.426c-0.012-0.175,0-0.343-0.029-0.526c-1.134-7.315,7.201-7.271,12.11-7.099    c3.909,0.139,6.006,1.453,6.01,5.537C298.256,22.347,296.939,25.068,294.421,26.79z" fill="#46974b" data-original="#000000" style="" class=""/>
	</g>
</g>
<g xmlns="http://www.w3.org/2000/svg">
</g>
<g xmlns="http://www.w3.org/2000/svg">
</g>
<g xmlns="http://www.w3.org/2000/svg">
</g>
<g xmlns="http://www.w3.org/2000/svg">
</g>
<g xmlns="http://www.w3.org/2000/svg">
</g>
<g xmlns="http://www.w3.org/2000/svg">
</g>
<g xmlns="http://www.w3.org/2000/svg">
</g>
<g xmlns="http://www.w3.org/2000/svg">
</g>
<g xmlns="http://www.w3.org/2000/svg">
</g>
<g xmlns="http://www.w3.org/2000/svg">
</g>
<g xmlns="http://www.w3.org/2000/svg">
</g>
<g xmlns="http://www.w3.org/2000/svg">
</g>
<g xmlns="http://www.w3.org/2000/svg">
</g>
<g xmlns="http://www.w3.org/2000/svg">
</g>
<g xmlns="http://www.w3.org/2000/svg">
</g>
</g></svg>
